<mxfile host="app.diagrams.net" modified="2023-05-10T07:56:56.831Z" agent="Mozilla/5.0 (Windows NT 10.0; Win64; x64) AppleWebKit/537.36 (KHTML, like Gecko) Chrome/112.0.0.0 Safari/537.36" version="21.2.3" etag="uQlH16wm9sgERChV8gnV" type="github">
  <diagram name="Page-1" id="FQAyKE0FiZ0S-TZ4Y1uJ">
    <mxGraphModel>
      <root>
        <mxCell id="0" />
        <mxCell id="1" parent="0" />
      </root>
    </mxGraphModel>
  </diagram>
</mxfile>
